<mxfile host="65bd71144e">
    <diagram id="vwiP2RfJ-NXkuwGv2hqS" name="Page-1">
        <mxGraphModel dx="1018" dy="615" grid="1" gridSize="10" guides="1" tooltips="1" connect="1" arrows="1" fold="1" page="1" pageScale="1" pageWidth="850" pageHeight="1100" math="0" shadow="0">
            <root>
                <mxCell id="0"/>
                <mxCell id="1" parent="0"/>
                <mxCell id="6" style="edgeStyle=none;html=1;exitX=1;exitY=0.5;exitDx=0;exitDy=0;entryX=0;entryY=0.5;entryDx=0;entryDy=0;" edge="1" parent="1" source="2" target="4">
                    <mxGeometry relative="1" as="geometry"/>
                </mxCell>
                <mxCell id="8" style="edgeStyle=none;html=1;exitX=1;exitY=0.5;exitDx=0;exitDy=0;entryX=0;entryY=0.5;entryDx=0;entryDy=0;" edge="1" parent="1" source="2" target="7">
                    <mxGeometry relative="1" as="geometry"/>
                </mxCell>
                <mxCell id="2" value="Agent之年&lt;div&gt;技术趋势汇总&lt;/div&gt;" style="rounded=1;whiteSpace=wrap;html=1;" vertex="1" parent="1">
                    <mxGeometry x="70" y="110" width="120" height="40" as="geometry"/>
                </mxCell>
                <mxCell id="11" style="edgeStyle=none;html=1;exitX=1;exitY=0.5;exitDx=0;exitDy=0;entryX=0;entryY=0.5;entryDx=0;entryDy=0;" edge="1" parent="1" source="4" target="9">
                    <mxGeometry relative="1" as="geometry"/>
                </mxCell>
                <mxCell id="12" style="edgeStyle=none;html=1;exitX=1;exitY=0.5;exitDx=0;exitDy=0;entryX=0;entryY=0.5;entryDx=0;entryDy=0;" edge="1" parent="1" source="4" target="10">
                    <mxGeometry relative="1" as="geometry"/>
                </mxCell>
                <mxCell id="4" value="&lt;div&gt;OpenAI&lt;/div&gt;多模态/推理能力+Computer Use" style="rounded=1;whiteSpace=wrap;html=1;" vertex="1" parent="1">
                    <mxGeometry x="250" y="70" width="190" height="40" as="geometry"/>
                </mxCell>
                <mxCell id="19" style="edgeStyle=none;html=1;exitX=1;exitY=0.5;exitDx=0;exitDy=0;entryX=0;entryY=0.5;entryDx=0;entryDy=0;" edge="1" parent="1" source="7" target="18">
                    <mxGeometry relative="1" as="geometry"/>
                </mxCell>
                <mxCell id="7" value="&lt;div&gt;Manus&lt;/div&gt;Agent+Claude MCP" style="rounded=1;whiteSpace=wrap;html=1;" vertex="1" parent="1">
                    <mxGeometry x="250" y="160" width="190" height="40" as="geometry"/>
                </mxCell>
                <mxCell id="9" value="Operator(&lt;span style=&quot;color: rgb(0, 0, 0);&quot;&gt;Computer Use&lt;/span&gt;)" style="rounded=1;whiteSpace=wrap;html=1;" vertex="1" parent="1">
                    <mxGeometry x="480" y="44" width="280" height="30" as="geometry"/>
                </mxCell>
                <mxCell id="10" value="Deep Research(&lt;span style=&quot;color: rgb(0, 0, 0);&quot;&gt;Web/File Search&lt;/span&gt;)" style="rounded=1;whiteSpace=wrap;html=1;" vertex="1" parent="1">
                    <mxGeometry x="480" y="94" width="280" height="30" as="geometry"/>
                </mxCell>
                <mxCell id="16" value="" style="shape=image;verticalLabelPosition=bottom;labelBackgroundColor=default;verticalAlign=top;aspect=fixed;imageAspect=0;image=data:image/webp,UklGRkpKAABXRUJQVlA4WAoAAAAQAAAAagMA8wEAQUxQSPMdAAABHAZtG0mKlz/r/w5BRExAfl2h41VlXa47nnqOPmbC5KZQoSWTZY+vZEJrWKiic9qaJ8ebglzvqhj1RGPsuh+DyoSN1jZFktzEzPJutixWh7EES6MRhpixhSFmLZQsarM4xot9ziyZoe3jhT5bjl9iqcxeDjFLZVgw1uaAWwwjZdPM9nec8UUkBGRW5p6ZiIAFyVbVaM4GkVyQqHdN8IW/ECTJjdvch5z/f9iRCWB3ZQJgqhgRsGhbqRsdNRhDOgSHvk3Nr2TZttU2qrRZUjMzMzMzMzN3j8LMzMykshX0H6S/wD3sUX7BH+Gxqp707r3vvlHPIsKR2zaSpDhIapnqk2efeQDp03TMf7b/bP/Z/rP9Z/vP9p/tP9t/tv80O2xCiRRFyJT2XNAUJEakSvRYgBYnWDxjNOV9VCwDADXGG086YfhFSP7XWwUSl5tS/S4VQv+JfgqdHUkQmqqEJPqdRKW0h2JRWL/Hou+rVFH8DbZPwmzvFACmsQBT/dOQTXg+IlByori9naanSrYENjj0U9kKg0RBxoQuox8LuJmjj7K0JdvH7wWggRP1NozAgUbH/Gf7z4aBpUvnejTg0NJcfwboSG8GjvRkmJEOhPnhcPjYnBfnE2hl1bgawIxc88XOg6dMp9P35Hw4n0Arq8Y/g0Ubm/3XiG101H9hM+y/sOTsQpgO2x5GrB8DHaTSk6Fj3QkffnGvdvLOUR95z2N7NKbDNsm6A60bhk5UbvozPWWeHOVd60llNDqqDR9+cRtmzx5yL1z1aAeEEdLuD3P+zzp456iPPGW+V7t80FEfmQ6PSsFSGbzznD7NZOmGhR4NgBsWejR0xB1rZfDOEgCO9GHZlgDMSAfCgc+NRq/Sl7gZjUY5Z43aVjU+AhZNDnYeHPnPHo2/eGGPNkJIWzTp0Qq69/Gu88MrbfCAsL6M5xDSn0E6FdKLerVrmhz1kU+/se3R12UblNfHP16hSm1Am9zMVtlo/lvlHY9uw5x1Fjn6o3o1k6PakF5076xupI1caL8weOfetQye8apzhue86hmDcD/30F/FppunRz5TayUHLWZx/9xjXvTGz8WY+XOuvv0wwNbG+sYWwOHbrz5nPkhg3VeNYtPN03sO11lHGLSUxf30C2/4LsA9G0eiy31/88uwuQV2bW3Cl3/zvgHircIAvNWgjSzuZ//VD2HNWAkjy+6rtzegnDa2r97dSfL2f4dNAIgxgxVYh/Jah5VB58j5d+vvqnFmzzaKVYls7+kWYZ8FgEiz+8tbUF1bX97dISLgcLQ5Z6ueOXZ465yukNM+fQ9ArLkI6tNF3SBn3rUG0eYPoU79YRcI++4WRJs/3K6V7T/s/njMD7ch2lwEdeuiro9f2H8PRJtzoH6dUxM05bgkAInaqlQSWaQw29gAJhPIldLZgC9tQLTZveWArd31wFOeWf2CZYCVsQhCFdXYZqE6XSZUXgYAImhePZ1O36O75JpPgBDyFB+r8bce49HMWV6HePPlww44/OU6MF2ETaj5EnjjKkk0AUAuTSdMSJoCqIQkigfNE4fD4WNzXoyP0J/3sRrne4w/M+eNAPFmzxaAi8Geqhjl2Uvax1BeDvkrtgFVNEcHY8HGSdsfOe27EWfgqhFpe1ADMrWSSJrbKfQzK76wCRUCBxI4afv8yVrEWVl3xPpKdTjYMJs1kEQEEWCX3oJKgYJE5FYtn0cCxJvd4E6Vs9D0ssnpCkzttZUntXH81jUqE/xzUHDCre5OuGz5jDYiztXrzli/uipskU0KA6MtI5Ij6aLG3DGisxj/nwRp9zwcIh7c1+Xu/u371m2SAUS0IJbltjmJQi+Wqckinm+ctHyuXIs4v7nhkI3frBHbXrEEN3UETn37/C2ttFIleZAodRlwmop2z3djHnwZXOrL9cMybvh8JNc1YW2lpWoxY0Qspylt98GLIOLMg1vN10yiMmZmjyCJAlBJ0TwU2Vjkw3bP8mbEOWfTKZvn1ICw/Cx8Zh4zi+QkenAAUejvQoIgQhAiZavnbvAPmoKplHqee8spW1c39Y+VNs8vgIegBgvDznNuB7e63UMunYs4SwstioUlZ7zyiGN+uJpr7dDqqm0CIQWHHXPYQ+DQ0ly8gRsWWhILN4A7Llxzy9qFedW51EcB23bMhhMM4rPGAehItIE80mqwxMAho223bI/wz33g3LZjOZzgGc55ho/gSKxBkRaDGXOK8wtOfrboSKnAgldtOWbrVT5iRuKMEWkt4Jhj7nLNXRrBCVKhaQBlbThm8z0Dt3pGGYGp7Ppz/cXok6J/s+x6MPXV9/5j3Kg8Rz3mjbZt4VV6VzLuBOTJeUn3ra8aB1yz39jLlfEUkFRSeO6I1/cfW3cNtBdFjeEUAtVBsEnl3AYAun/+euNaXzU2XLOKDj3i6KB1+zEcQinFmy34wGrMg9XLIx4M98c82HYfIBVCU5GPSJHTXMnDacyTp8OIJw+nEU9eAA+SceZFGzRNKUoWeVrcsrmmWrb4USlb/Ih4thuc81nzAGBqSZYZs5gIkFHbn+eaKvvzYkiF/XkxJAr78wIdbhtrnD25KFvcjlJhU/4olTji/pZKHInCUSqBDtcuJJUVtWMvBdGxeLNASEuCkIUlh0Pnx16W0KiAqJ1RIPm/FnEIaVEQp8PmPk+ub3A5bPCzv3uNGzDNfU2TZsGbYVNfqavXuMGgsa8/2S34M2zoqypnfdHwi/vh0ND3Cug59L0CGvkOOE3HIwGa+L5uXQf5k7Umvltp04HvVtq49+DuO8gbcxq2ZwmdB+pZQrP2l6TtsPSXpEl7AdR32HoB1Jx922o8rH3basoe23Ue9h7bNWM/JDPPmYWXkHNSjeG+ipV8oseY88rprLv7A2Y1nvc/azkN2LvW1POmPP3SGq+T6jRyuF6xzl/ymMJru7qpxqq1Grp3rQ3YZ+QeXAwGRp+RG68n5K3XXK4n5I3Vv//+o3T//hvpqTXaEULe/l07TfIsNi0JWYJ9P4U1g+Z4wqgLsl6jNrdqfdQlFZSuMKrWeQaD2CzuzRgs7qUF6xNGNcRzs12SYZ36xHq9D3B2BYa16nsr9T43W2QW98r3AlzcPj43W1wkjT/6DOwidUoEqUMIb3EH+xGC+L3QhtkFsNKbsQIAu+LNex7bqbILclbiDSHdGEpSD3oxdgFipRPAheaJkMSDWPPhF7cs/NM00ZHGIN7ZujF0pDnovdgFFlZ6DWSkbRBrk+6U52hdtYpKenHnRS7+1+71wFPmezSmw6MeMHCinNHZnLxTawg56iMffnHLp/F3E2BK4t7AJ8iuQ6JVHPIqhFkBDZ3YulKtkm6IBjiRQ3chBU0F6qt4ouQsb5KL4YmyCy6JkEJylWirDh+y4uMwUWDX5z4HoKikRKpxbtPls8vPIZtQQifM4vN5CtFvZ4x0Qzxlvk1cII1lAJBdZr6xyFAspSzLI92QSfQv+6m4kEKXgB0eUoqdXyWdENG/mLXggrFxop1d6E0oKkpUuq/bpXOdCtG/RYNksxDWZ+uiSaJAVLlb6aGluc6E9zw28jcekuPxqS4jUSrBTaEZk8ArP22Sjsy25PTn9ARASvOAZUKkFD93V0JpCiCrPUMZjsyyJPZHYunkMvxoa5LYJDNWBTPSgTA/HA71my8eDodhVGP4bY8+whWbhfNK34x9KyVqdTWAGbnmi93H/rzpdPoefRJPPoEwqjH8mT8fYXEdsgPTsGbd/32vRK3+2dqll81ZlRawuB+vtnWHdT4U/OJeAtvoqKtmr9GJs63Jc4LHZthRw/9nHSz6s1PDxhLrqHnI9WDX2nffGjRGrKtm8WdrUKjx6Z5gng8nBYKmYCql5UEHqXSXeNEMU4RH06QTZjtZThKqKDHtyqNjnTV7y/Rp1ZdpmlvR2gNCuk2cN8MUyqtpcknYPmahIOhqcd0MU4Bn00S5OAesjHXCgVfNMN5NM1GcYHXGgUfNMB5OU3BSKIst6WjxpxnGw2myDCDjxrdVlQiwS9TTqVkHai98aYbxcpoCODGv1MVVYuzhU8a32ToYOlF34UUzjMfTLISmIh+RwucbA3cXXjTD1DFNh5kXLaDr4aFkAaKrxYNmGG+nia+sQC3JMmMWEwGym8V9M4zf07QnF2brZqm9GaZ2eXlST5eL02aY+qfZ/eO0GcbFNLt+HDbDOJpmx4+7Zhh302zH0JTjkmx3L/eX4vvvibKtC8BLkIwZam6jE2Y51FYatdfziacUt8d5DcvAqowRATbx+pA8T7fU1mw9TBQvxFUzjNtptmF4yjN04kXhipwxfwOaVnOIRP1LSsvMHZXodDtEClQDYTlnS8gg1jVb47oQNg+tEZYJ24mdxnwrh5NmGPfTbMFIYdzWxHyhetBUklCRiipRyvG5ZVOcUok2Rdo7EiXNf0uCpvhfU8wwlvAy0+AtK0+XrVtoG06aYXyYZpvFKM9e0j6G8nKQJFRESktWjEv95bQgINrphTnTpJASWfmMML4oOwbXNQfNrkRJUjJw0AzjyTRbLjK1kkiKHSelxG/+JaXl1369RUFn8peTHcu9/EzyD+M3Fp82KUyuV1LkoHknoDT1N8P4M802Cwc7xLbiCr8RsrRPiIwRvdXkWdGfhOw5CkxJ43usYSCNgJBAcBwItETZcg6XenEvl6buZhi/ptlaoellk9NtvrPXVp7UGyp/4YSD0BUAu2SiLK2YLBNFM2iCt5qGBycKLK5lSc5rERjS0YgU1pI4F5Jwy29fK7U2w/g3zbYKW7QmIxWsrx6j7VRCipQovNrjVV3KMowTjITcQlgaMcyApkLPwPghbP7EB1d9cvD2L+8a5OJ3PGlg6gP7B6V1Yd4M473Gzxm41f72klwEywDCKMhw6BIyQSqBlEQjJPYpS2CMoE+UE46JrD/ZWu4SONM2BKANcKxpKwLLWH+pogEUVDeJSilCivIQ4n1gWzRo9rkcGd191UCrkYIBaU+wzHCbyMD2MWluwjKm4WBKPdPOOAlmfx7bx1zBlnP+WxAknawS/M+pKZJJG8Jycq+5FkcFkS3a9zvgoNAEI1QQCIl/xDoCgFspMIlFttQiLD8Ln5nHTJfhJCosM5JYCxKQsVIjHB/p4TuJAii6WJX8i04cNM1Hygdx2J+X8+QltauxWrsRJa6pGI2jVBqd8I+97HLicEZBmxOD8+Qamwid/d3ZROeaJhmGC9xWX7BLigMPBK4S201VxvjAqlovdsAJ4dZaeAHzoBlE5kpdOYZOmJWii46k1GskR1g//zIjy4sZ6iR+ZUlZ9E8CzTB/IB00hahcfzLNiavEpMzK6j8AgFxaCjahxulCQpL6KAjCw30Qk6sq55lkbDvXUyDYhJq+Hk4gOZtQHVym6JiRhgzica+AZKeCQAY5kijOxgkKOEjSlEE07oCTaFgG0or3QdmGDVAPGTOuEh0wlmWNGUTivm7JTqIY0/+8pPDIZfxzkC3bL7igEqpoQwZxuFtpvrGtqRmzbxd8R45pju2iXFIYfqOSpgzicA/u3C/ohFu2bNxn8GUXNSJjqBqpugy1Cul3aoRDgbgPUA8aTwR6lpB0pEowKAdXibdXVS7hJzRFJ5jxjOlAZIuZ1DOhlg1aKYUUlBSe4PtLknIkdioMfo9lSruelxSJZdZtkFxMBWHjsd4s1YT9uhACuDewDppD4L0ASjk0lbZV1jBNFOxdBuE9AiBjRZ+YZeN8ejUnS0jpGYScga5H6Qm8gyYQdt+2cg5bJkTYTM4Zn54anif83p9H0yKnEADqLaASNk7KXT3IXl+r0kcoa+2FSjyBd9B4Qu6xXUGSnyO+q1QQlPAE3A/JjifY3rX2PIH2GbnrCbMn5G1PiP37b3wCfGqNzie4Z7FZIvgwTd0Ms8ggD3kreVlmEHLMf7b/bP855j/H9mGwWqd+vFlrJUchMFr1VoMAGPg7y0YzDeCtwgC8VV08qe4+5j/H/Gf7z/af7T8M5mLOc6LO3EwOLM3Fm6UbFiIOLM3N4sChpbloA3DDQixgdfcMDlrboo2OxAFed8/cGGtbpMGRGMDs7hkby9oWZcxI+HC7e1blp6MSAou2bo8bq58rMcu+BRYdPBg63O7+z9kUMoo5zxnFDWp3Hzkyo0Li/g0qbiPM7v4c/OWsStzbBaqZRJtDf3rL9187mFWJe2t33Aqidfc5379hQGZW4r4PN267zlndfQVcQcjsStyPTIrbAWGc7h7c8P3XklmWhjne9jmERJw58lptNmNDYg6JOgSZ9WMgs36Ms9qygaK2biCorRzwaksHuNraAay2esCqLR+gausHoNoKAqe2hICprSFAaqsIjNoyAqK2jgCorSTiakuJsNpaIqi2moipLSdCauuJgNqKwq/WGKzWqR9uBfhUWXF7mK+wmtI1lB2u+WG+ipiu3yKNKRA+tWfQ3VXkILy9XeBS0+3uevN2gNvbBQ415e6uN7cDwNtbBbaadnfXW+bc3iow1cS7u+IS4O1tAkNNv7urLRG3twnGahfo7opLgLe3CIZql+juWkuD21sEA7WLdHfFJcDb2wOmWTCLu9LSwu3tAcMsnMVdZ27TunMdlfT21gAyC2txVzOB5kHcGtBmYS3uzudWbdaT8S/arB9jcMPGraQPA7d4fnxUGppyXBKA1AiVlGZHWfUK4BbPUXl4yjMASClBYhlgZcxw7PrV6YNaPKsgBfLsCTVfAm9cpZHiBPu2Nm69Gju8Vntg7i4vi1GevaR9DOXlIJG/uCIwV9oRsLoBY3d5JWRqJZE0t1MAKS1wHSEqsBOrgEB8aEc81Aag3eXV4GAHmQCSKM3OGvS2qY9upO+8UrPF26zFxzzWsho0vWxyugJTe3V52I2kNrax01Q9FHnU0Er9iNvpv6KbCo9xrGVF2KI12VCi+I6CVEDaUyfO/EcqtAP29apjPdayJpOCUnXc5j57SqQcV0EWaLsq7Vth1vhuWm7ME3XqoEzAVZKvqFRR7ELFHFddb5seB01M1ZJe7blwHio2xok6bmAZGmcTzU6Tiv5z/PFlkf4rZfIGJYRzSg06UccNiTK+sOrsVT3o+LIyiBsKfkapae34inq4X7LNoW1y5CrzOMq7RoTlZ+EzcQwVya2uVLP3/Or0eGhiv34r4dYOpOMjOxcZ7yjv0ccHteuhph5WoIcX6xFa1np8aL9z78G11PveCSf4Y4qr1BjvKO8lCEh/XdbJ7BR+sGKeKfMpHevP8qCPMA3lJXSKIGfxshvRR1RUvd4Uf4nG0Dn3bKKPnK4pNfxTBFmaPApdqYobnWiTJ87je5dGZaae904slkdvhXN14Z8iqOzL6kdlXacWLwIYB3jzUfHpauGHdC2Gj0Z53jS0mRJFjlTJh05y6TvQBoWZ0uV5ntWu+PJcaTtmLJO4pIyZh6dYXlLq133UK5ErPSkDU5+57wlW1y6hSsQsdD2DVe3q2bqfhGZNJbnMgjb486xpNWYSnQzHrZdYSJSwvJ4w+fmfT8HQ7/4/f3PfE054Mra7n/leXYpa6Iod0IfZVco9ybVQPrIqdp40rcZMCmMDaji8XXvm1CvyNBSglfjJ1gBxkkUnW1XZR37GNvpCx13hyGopJ5eT3yyk6tlFVqMjT5XmbfEkQgihE2YM0bGWr0h/wQTbn6jtkV1556nmLXHbohViVyn/yV5q0ACpTJm20uJp235yG4kCQ3KnzpU9cQ9gpb90gj24fwkvOiWXD55j3wx9KUjNKnlPKaOxVXwnObVmTNO2eOIXieLc8Gp0eDPOLfLyd/785InanUxXstif+JS/RZT2n6oYJtIy9HZnba9TKsllFi47ql4xU5p1dzkHFEhOCE0XUzPQjJ4B/CQZyUPaH1F1j6+DxBo+ex+UM+cpecyZAk6yRCpo2N3lpBVJNMmY0Yk1eOa6bvp5xvXFfCjpwvEKt6xhGAxXiRpmPUT5G1nTkjekv+nTanaXS64DgdCWBcxlxPjs4hbPStXzfhclF1KpC5QdBhAqzgDEzc+DsHOIGdt7nsrMUdHAtJljLZMxI0RHLBSMBAIoFzIvLyxsT73EPGSgof9B6hGODaVe5VJKzyBao99JOaCtHGs5Gu3NU1oi2KPZnHYzOYKQICnOyIg3PMVp0aT7YfUKC+60T/zEM0c9qfSrrrkD9prlJHN19rSZYy2FRFtQQcrx82nvw7xz0nRyZSq9PRIRrN7/8Pc/90/eqxOIN0zTZPKJ0zgfiGx/FVDOvmzkfOzweyi3SAENeaIObR2bFiIA4BVoRLC4JSSiJinZ6OrfBkeOrudrwcRlYJ482gJMrUMHOm6IO6TQ6rRpYDOJ4QSWUwmAS/jZkj3uQBFv3GPKKUl54m6YkDgBUdfQFz2KxNCAZtIEISKCbWIWZGqq5zjYcWy4Rw1NhPRV9OXUO2IbJk/zmekD1Q1NWIro3u91fIqEjQVI1DM0UwIZZICmM7sWP+OC/rufJj2Kr9cKnEITD5VdwEcoDCFE1eGp/gnNzual4cyuxZoJR/A5uq5eML7fuGILJfZDUj0y/Ah1hAXfuFLsNP/+fKtzp9nM9EFWHjgeLTvPDXonPN/2O+FNvSdAcVLwkQ0G3+5KFrY54z/vs6bJzK5G7Lfji94h30mT3fHRxi8Pb5/asoahPT2DhOYvX+Yam5vu8i/3bwFWP6ZOg5ldjmWF6O78K3fy6rr7Wys+HRJYlrJ9GCKskZLvVcEw5RdaTQfNZXY9zByE/uuPB6ekSFTtXirg0dmku2WuDCVEp/SrnKAPs0EnZYKmMvOcnSWT38P03vxuT0HRdUGIi6F1YlQdlo2cj/0XnAnsaFAayixMDsHc+ZKYgqP3MFb+02kms0CJNELkXZ6Ymhp7dmtArOacqhJqXqqDZ7Dye8slTWQWLueGZCYue67u3rasemrKvma+8D5EP2vq3yit4lVyYnhxOm0WfSM3Cxjj0aS8fjgusLO/jYnz6l63e1PflG729G7Ichdqt4yokBcPm0VPJyQIdpQlGrs+7qf1hDOFR9FK7Z/nqX10HpX9eTObAica++mnjUThCl3fUrnSF8LwPKmQF1RvNKKFjl07IAZHbARsoPe7l+Jfcw7k2Ms+WowUHohGNxw7taacUE5Qcxxxz2LwThjDjkGyUhjQyZWSic4OYzhllnoeR2Sr9JDU4M6TayFQD5nvsNK9l5j40d/P8kQLuCGp3Q6glj+B9zQS0xFrUImgwiAYvs0t7QO4gMu4WDsOcJE6Gw62AyrpQ18Hx9knDNk1yBtpxRerz3yt7RlpK35RPfWUsIP3/yeveqrX28E+/2SJCfMwFVIBvWFde2apZTxmXHvLncC8qiODild6NQuBAFMpxdcRt1SFE8HxNVd1uq2mGQuYoAwi1BzL0Rmd+a38sxx1zZh48cuqIC0X6zcxhGthh6Zgk0oCBVGEJqPmDQt/LcibTYnUvLI4cDwZe60KmLCARygiPjsMtowjLhYzXt9CUaoWKnWhzC1obFD1eMsWlCO4SkLy9SxyIcpq8IZErBLMjYEFW41H/sD6LJIsU8oye0WKgrF9JDQoIjf+fYPRFvzt7o+zOa47Hpnfu98xgwT6PWHbtAII60jAAVQgIRtUzEOdGkUBgXTiQsVJH1VCXDbhk8ennOV2ukRZBvwIQsFAK5iPKCYK3V446Mp0+MXLrsmotpzbEJO4mCFGWB6jOgObUCkR9nqFaEIt1MYfCsRpLHne4SbzvkdjFkBG3S1niWyc5UhBctg+VhywCbc9WVeI0BUO8/rjHnWhbdVifnQjTXduW+7aY5lFIEZ5mkQJoxMjkmB0DlxPlokgB6CVKC5ChsPYVtyMA4/3r3OEPr+c9GIO83vJX/OUmQMpjU2rSvK39Ath1pHDOMtLDA2SmCbEZyGZz4nCSGFCYXHq8/4cOMlTRswOyRi+j2Ho5JzsstwcyzSlafahMfBwoJSA+jPEyL6BsAuOG/ChI7ueunvYS2/DUpgF6pAPqg3XSbZ/AedJlqGdfKg2Kgn+L8hnHPKkp8PonrXUnJGjZYZTWGBOInuIu2/JZs7QOh2v5KW3YekUqArocU806o6vtDPBv0dpYOnyJ/hPSHfyhzaMrhG47JLQHhCF76Y3ozQLBPE9PSRd3Eyt75nzo0LWut1d0U2OK/rqYv6W6HKO+OV8VXqrHn8PGMR006tduhWylPwTDWwN3R01qOQX2VCEcBIhXcsfh3eM0FZ8/KzTtH5/l/cT6Uqk4CBuO3DSDmfaGa5eX8M1AgBWUDggMCwAAND0AJ0BKmsD9AE+bTSWSSQisaEhEWlSMA2JaW78fJmnVGdnXH+lH8+/GPv//o391/Xv+zeo/4v8s/TPx+/svtrfyPk5618VH1W+4/23/Cf8z+//Nj9e/wv5Yf2j0t+D/89+Y/93+QL8c/jH9c/s/7e/3791/c1/kvsA8fHRP249QL1c+Yf3n+4/4z/bf4z4f/gP7P+b3ub9e/YA/lP8w/1H91/dn+/f//6R/0vhv/UP9f7AX8s/tP/J/x35CfS7+//8P/If5P/yf6X//++L81/w//K/yP+r/8H+f///4E/yz+if6r+8/5//yf5z///9r70f/p7f/2+//XubfsZ/8RCu/+dagpqwvcF7gvcF7gvcF7gvcF7gvcF7gvcF7gvcF7gvcF7gvcF7gvcF7gvcF7gvcF7gvcF7gvcF7gvcF7gvcF7gvcF7gvcF7gvcF7gvcF7gvcF7gvcF7gvcF7gvcF7gvaLIkY7MO4ouerFni33Be4L3Be4L3Be4L3Be4L3Be4L2i8rBvWafwCvRykCvoLy9C9wXuC9wXuC9wXuC9wXuC9wXuC9wXhgoKGz0k71I7VM1rCanpCalt9wXuC9wXuC9wXuC9wXuC9wXuC9wXtJlBoTb7Nz+X9wRjuRpxnqCmrC9wXuC9wXuC9wXuC9wXuC9wXuCpEbwXoedZBmqZ6Cw1t39HCwvcF7gvcF7gvcF7gvcF7gvcF7gvcF7RkLuqNVzwhKWBB6M8aZPqAvDl3/cbJcJN5gXby8H3BUFdkoMEx7uu9paC/VNUMZVGENvNBNcCvAM6mRDUf5nDqxktnM7t3UEJ0/JZPx0M9zBmSEm68i8feb3BU7h98BOzxWZqALEwxPc9j38WRJHxw8A0PiVkZ/mkTb+uV9UNussdKp3ZCBImMiHWoEDj8F5+hl782WxPFOp5n6ocI65Pt2DluIYkhTWjZrULS8cyXdpLMgdRb5X0GF35RYFYLBJKe6xPjkOCGFgp7CzjmZflENGL+YyVRtuFQ5eFk27EInDlq4GkGCBTC5RlS+2MGmtF4h1z1F/tUb1RNs8DWntPcQtSPTc1wMAN4cu/aLSY8RhVpTrqyYlRM6kQA7PkZhy/fhg8fXhLjW9hGYi1At94MsIxkPWL5EATCO7s2QmQXJ6yeEgvuC8NgM0Q+Sr2xca/uKsV1/Ts/sIIDCVWwS9v48GyqsaAN53u8i04Y+kMBAZ8DkmcbkJps4Bmc8/JDd0UL8vQvENz3GNfSr7dgLXXbrIf+SX+2zxrw750x+0Pae9p+FrhPRB7HGp5pOluDVLb7SOJ21QYFSnR9p8l3hr77BYceqqBbv2TgBFL1TVl5ovDbkvutVZQZEC1Li1mkJKCkdqKMCkIpBpFHcuu9VgvnUaH3FpSjo25Lg8sSGP2rW5IuS8ZViSc40frhUn3g31U9tO2dLx/9Xc209A//Dl2P/00E5X494mrKzSnbDNqW32/mGwwKaBafZQ/BF9vtP/zGF5Me32/mHp4VyDivUkwsvrhLKG6n2rtByQu4QCzxb7gvcF7gvcF7gvcF7gvcF7gvcF7fntvfF+RNk9vei5ib03Dl3/zrUFNWF7gvcF7gvcF7gvaMSV8BZrdP1RjZuERkQiHapJ3PUEINq2Tpy54VaaTr1bQkiyaRqgpqwvcF7gvcF7gvcF7gvcFQRkXH/ZiO9CnSzKE6FA85mX7aEcY1XSs4ViUTOzz5jU+OWT7Ucu/+dagpqwvcF7gvcF7gvcF4fhEt2j7INjC2VavNAUP8glVX2QmI8xuPOmo0cg0Wq/3EQWRRDizxb7gvcF7gvcF7gvcF7gvcF7fzArQnthGTWnmhaIPty6oM3H53w/0wG3KX51qCmrC9wXuC9wXuC9wXuC9wXuC9wVe/IFNWF7gvcF7gvcF7fmKTYb/jusZPXttp/sQWXtFl8F3YILF31PvgvQqGSH1ljqxSUDLcBZ4t9wXuC9wXuC8NqIfoNPil51Y5RaAjVBSEye+tK6emRDizxb7gvcF7gvDQ2wEaK7hHPM4qoCYPltog+4KfyebmCvj7YOmU5PfmkU7sF7Sm91XQLUCLCQTtnT1V42WrC9wXuC9wXuC9pBH8uH87qCkLaL6CS1DrFnfXT5gJg6Al51qCmrC9wXuC9v05ORAxWYqchUO/4LCjtiymC9o1sSjbH1TWAzFuAr4sig8zF9NaP47+X+BhwezwV+U3LJCmrC9wXuC9wXuC9wXuC9wXuC9wXuC9wXuC9wXuC9wXuC9wXuC9wXuC9wXuC9wXuC9wXuC9wXuC9wXuC9wXuC9wXuC9wXuC9wXtBFpcKMlXIBA1ljfwGMzhsq0ZpqoE945A4wCifJHZMogpFHaZM98UCv3r10uQd+/eYTmI6WTh69yQIrEbh+wVYd5t8V2gp6sL3Be4L3Be4L3Be4L3Be34cZn8lxTrNuOBQ2RrsujXrFDjnDl+pxPH2BLPRjRk/bg4os5EU4GbCHA1dmD0hYuddjvNvWjMpdnn62SA+HW8po+8+JbXep796BoMA06+6NJ5ZYlMzeUFjds/jXNWsmchoSBHNfnWoKasL3Be4L3Be4L3Be4L3BjK5d/861BTVhe4L3Be4L3Be4L3Be4L3Be4L3Be4L3BTAAP7/v5wAAAAAACGUp+bq1n7LVd99gakSO7FBWZtcRMN7u07vdPBADvBOHP9AxslFbFMcRNbv3thwLpHP9U92Ykm3OBeWiG61STnnDKhJuUWeAXbeJYggNNuKLgtqS++e/0NtG9k6a6JKvSa/U/t8d7ULZClZ+p7LqN/Klid/nVTiFS7Qelxz8Cszf+agVzeIQ94j+HJAx+VgAPZikj4TIpDUEhN3n5A65dGEX3W7Md58w+V7vUweobV4K6BApXsZy4AOnwfp9WGW/o3n4M4hcpcXinKjCOAkv+cf4fCvhOTBCOLsd4zMYzve6+EuexLGwmsFqnfNHg1aSjyDJvgVWh7eHorFWcWRVMdMqx6zwKdPB2DWVz63xyuIFd+CXG1NTZHDYVavabxEKAnS+FFHJdK+a3gLrgIwAyqV462AIivVd1ZZ/wZZSAT7KBwd6ohyhhD0DqIb6lQKt9tD1BibLJ6UItVo2/fsYUHdiAGQiGPlAjf3pF2m2O5miQhCNedZ/bonM5Udac+6AZRBjOlLM2H84aDAQ2MvRlsrcGyRuVvwFuxTecMxoh5riEPNdjCfYAL/MBcait6id8b0L2DGfSCba53Gb2zjWnyMwbksCtRPDqE01xB9h2dChvQ11jh9WAevpGiP/HkkJIaelITbir1gHyI5T28EPlMgaugf0r8uGMqsZ3ig6g8H2TBN/nqqMwvA8M61IXZCTqWIIAPbgZjcp2N89bT9B4KpUkp2K6BApXsZy4AOmQ70svdbvnJVZDfCK+XD++gckJ3EUj8jfsSul8z3bg/N3P5pZqd5xsDKThejOg4uxMfWCw130M8ia6niSGQ6/1ep0sRMAY7rgvjuHejYEl23Hxnd1NiJwK3c7536x5EseKSp5XmIb4WWrJO7NCEQA9lWBh0Ogzm88dbHCwCKYT/XJrlWAxbhac4+f3q4oJrQ9wn2sVzODC9Y5MSuvnd+iL+6/4IBrMggKY9/pHPXgOGidsuEvLZfWveGe6/VjtheqVxQaI5J0JnBQpG+ympfl9cTJvHa+SGtKRIEvMB4czobdxXcVV/2fYN+oA/xLLzLnHzJbMTqlsXulRPiF40+5P0awNlkjQruoz8PADr7PkNmgxOdjR5N8lpAF4T8qI8apPushk7HKXW6ZOAI3Px0VTJ0bQYg5rTqfppfaeysmE+zr26dO/s3RZCPHx3JZPH1B+QniIDpNL+wPQIKY2F1ycjsVekSHqbC+xAhkOt9XSCXaj7KLRQhalG5mZkSpvFkMKlnJsKJaXXD9EYXxrbC6b7M8xVkxEq6zcDXwoG52sNciQJaAFpplC/vtmwFo1CO79mFczEmY2dpuwNsxoLtmNC/02LaOJAg0d+DMaeCiLVxKK2+hQ9aAzCINKxZmxKED3eWFoZPk4mYNnc7TjYegBSMHumfvgIDdE0Y2eyDU/eo4QYzuoNuJbX1N6lAxVLKriGv/ZXxoDUlCMw5uzmyEAm2SPs5xzcZ9EYmal4dqKKQmuwQJrMnc6HBoe7IfQ8bGee/NtXFJwDI/PE/JtDvrlwb3+LhMA7dYCaQco/fhi/75oUWreMkS80tBIlibXRu1r7aB8JmhC/AeXW0tRUQ1sNHWxZjNg3dGFs1rLr+1+uZpLtSpLb+qXCAo4VZyQBm6A7IJtzPr7JB+5xDFEB4J4xk+KMXL4yypMJV2y4Bg74iWXq7GswWko/0OJymPkBZuRPHJoHIx14ZfdNIo+MFpUuxRcDQ6TijAw1CJVIOZbK580hJw6EN+xE1jjPbLkMGVFfPAvLeLZWdHa/NujLSTFHB1BE5c+0EOm7xs46SSqSvEmkhA3VRjoJyuHYZR5IXo37XB3MOUmHUhar9kxyl9JociOxLZ4H+Bel9PdC4Z8KCzAJxv9vgQTxBBclEI6df2PHITohrGuZWkmi2aM44hs8t0wrlymSM+TH/mTGgC5kGESkMugHkVFWTx1V/CwbZauT1UnXeo7kzWCVX7nzG8Ahf5czZshwfzEE7MC13gpQiDRjNmvdroqSBEkpStnRU1bQcWJbqh6wONLxi52Rzwv5LgmeTFZ5B3m4Ynt60suhghtilUZVT3lcCY1G2z2gy5I9GAqzpkRZLbC1b7VLxoM6VmtruNz1mjCsY/9td1Mmvjb8Kc0Cp39CTr2s3Ydz9yKomwzpAQFWNyNa58FPdumnbFsnn+T9mUi/RhLAJzoVz+8UkhrCdP93C9E9zVfupjFOyC0QjypOqZt4x27niqfcoYxUlpZqx7lqbFywIVGnSvdtoQpf++LF2yp3I3qEstGphTAkfztYD5awuXimuV6jpcLqcwjRTzxb446GnVYvgO7nMsIjABQrFQyQZ/8+tJbGer2kZhYsV2ywGagrFJmjxwrjCce2dsV7JJ2GWERYllmjgmFF8lj7WBwWL5FU7zm1s5yaChs8FKIMZ0pZmw/nDQYCGxl6Mtlbf94lWVHnxQAdyyAR+dptG1BCq/5wfg2IExa7AXm0tg8L+GXNcyk/WhzfC3me/kN/o9QyPIQJyZWEAm3dJePH/WeeWh0wm63JpVzZS37WiJ9ih/GbuYqyp3WzLIzP5qUPYHqip0SLKMpnwU5KkQX6qLm6aJ40KOkiMxuohUQinwjcRAR1nZIORpB4x/TDuo5h7C+IFaQGROsRFnXsbpl33NmragAYxSJ7/yOyUhnf/aUQ9/odwdKrx7zl+PnO4rquIf9RypOU2BjfFi2QbTjNZlUTdsMTX4aaxAVZzGK7YrG/qdtfU+r5voBAEjoOuo2/JcRAJqIjy8glJWeI+iEZ+QeoNpnbfJPf5z4FHuEk7+GGJLsg/AdO6aVR8Bt1YcrqT9ztb/ycMUDb6hOglxC7eIZGlJn7B9Lw/2u6gLgqnKddkVxA20q1ePICE501QdKHSNt2pal0tCyAo82SiFdFx/lahafC86Bi6l59YKEAE/czv0DLdQkwGozRMTNqpI2FuW1fn+kaf8mpp14IuVLEZGnAIskL0qvCGHD1UffTtx+VjJaHGR7IwJL066J289t1tJPpsRW/EsIYcL2uvJ4dror4rzy0TrM2NEScKSRhPzz0OlYsAO7+f1MKA8WHFPIs7uLQ+BFt+U46VcM5gkZarAG4B4R4PKDJxhztw/3sJi9O5IdfY1fDvREVgA4D80QpHGfKWFFZjQMW1FxHfMKcS1cETPXJAqjlQSFfygjl0+LtOIt67KXItvSTpD+yaqAhh+TXonihVFNEzOgptkmskn8s5CABWsiPMqC/yDcSGPufZKYOndswvS9lkUu20jdtHFivYbduWsxBopBW6IPfQ30lXpWph4ftmf88dHeAUy4SyVQf26muYu9k392hMEDh/6pjRKEoLyruoKeLrx1mFbv0XZs3fs1HnNnnaJgP65DS8lIEwGFG0alVpAiX+PlUIYij+uZl+MujrvTUn7hxa+tkSZz49RnWh2UwTdWuG+hoDtaRvYqLlnE9RZByGVEHZnM8ogSW7bxjdnqsUAxDhT8hwWnv0damT7S9Yfez7OEuXm+3SOUlfflsUkpklM5oirFV1rEljaV1D1204aVB5ekXrQoRiyAYH6Z0F6zXlhp1c+ipghoTYYLfEgBSoiNRUQLmHJfQnhMSl+1UIK0cm612R83tUc9IqJmoK6itxheefp1NlyUKH986iigjBnTF3yRatd6srWXPAQyrV1C+Fsg9IvhzS3QfvEVT/rujBJYPcknt4mbEXMrboL/EVH9VYjkF+ALN1Xn5zIufegJNbB4otAyxgbZ83ApQEgNi3JOKLFu5vgV8c+FMTbn1i1v7gzF3xWaoYweEyEtWOkcaVTqlvIfpLI91ASt+J0QObHKMy4GxikZJzHh/eLtkEpIgYxVVzuHcA80DId0pPXIThlxoHSzUlH7TXDA6AK2sKv0wfsn3Lf6zjG8q0Z74oz/RBqoQ1mGIp3HT8veuRtZSMPYj/YTLje5lFufVVamKgb9CtCmHr5o5n6CdokHuRJDKhhgAO6a61SDezgZSNkRiVHi5V3XahlS33DUJTZE3Y6oUVt1IEcYjpUmymKEE4yixkNmG0J8O2b4WPgX1lJ0zcyUXItC5t25RTi6UASRlOnbGSKnEPBqnBtr95qsE/ELK9MkWeXyItgyZaUyIod1jPQNgZ6N11uxB8MbfnuAcoPI35ILo3Q9DJNq5wPrbd5MAAvXbbyw7dmJ3eFq/lM+1VRChmW2EWG0OnKYtEqvO6zNPA6MzNz36QBkiDxQSIBNAFKVrINAuvrIiPm+54ytUFqvIdhGxjIBPOI2rESYxUt4ZWVjlyeAG4XCTVT1NxELNkT7DswIlcPl0vD9wRnVbyBTjq0Kz9A0Yds0PkLyNYp9p4OsmfMVw5XYpGmDNF5MyRcdgU5z0w0djFlG/nafxkb1jkaYash7qU+yr8wNUcYboPWL8ike36NiJRAo1LJdCuv+47M67ChXtXRaeQ88pzWG9OpYbZLxwTwT8dZn5pLTainA167bGds4q1eeR5PS8ZF9oe3JMIxYhddBC1Fj+EZktkcZq2gWnRcZxnG3VBJiY2ZuV1uEjTU1FDJQWX0Bu6ptt2FRcFRvDWUSr3hb5J0Ex1uYBX+zq+EEkMxBQdbSlg877P0CQk6WqvT6dpZgWhuZp62edXDRAvVvt+ad1COKpdGihxIPe+gpAEB+iDdnrV99T1PyvzmW0RveWAr2pSjQXzlLbHOWYDF5rt53YvKzuXS4KP2t+WS+Dlf5q2nKV1kMX5KPYMyisu3ad/DNA1qVcbTSvSzKJ7jpiumBCeZcXmDlVH1tFG/kR2an5PNJwUC09rrz4YVLtN9SqOa2qqG0DWjTdSghpE41kwTtkSBfSKDVlidDBgXDUKOFF9gCT39je7wIalubwRflO3aTadTRaw7LKgTAT15Q7rSFPvC8Z9njArxSz2/JalpCJo/k59r9WJXn/3juv/mYxsC4liYqUzhvO6bATLxoz5H0sBOPBBRx17p2TAa7U8Sq+R+CXH/G59NDLcLcQ4RsMwDJSK6akKst2ZBUGQ4wdebzFHkyyIvZyMhfIcRcR5shmJdbhZyZzLqWmxwMIvwJAAA1UTuQdTdc8Sxn2dA3xSkPCBHFrwtrlneSZivZqHn8C2H8X8J/s9fx8fZgeMHvnZIWXy7S/H9Qyb/lX3ECOecpQ/s/8TBx2CSAVQc0WtdawaXnpoFRvKc9AtryOoywJFSFm6Bs1wIHcV4boQ/i5r7jKOLXQuMPy21gMWkRugpNyNNphsQ4XbKsJhjh0IQLwAe1utqHbfpk+i631bvfGPfmtp3bS4mPEZ40KHij63N6mwy3tQi9+VuuW8OdXIvW6vuI+oD9JnaJ6OacmxCACN35eYtb1SIXqgISuS+OCcxQM3XgsyUc4lqAm2bwaZ/0Bi0Jayfrg5N2EzGTXFheSMC9DbBsr4ghqgXxh/ODyG11IQbE2wxb2Pm01BgAQbzixtQNmMVOZINE/D7/ymSXqU62BdGgwiStp+SrNWOzHBW3kKU4ROqJYhGQx2CJZAGEn2k0gsY9UH1uBiwqNT7J4TAZXG0dw903Fwk59f4jQZ9hEOg5EPmgB1ZcqhFWqEkCXoVz9MQmgIrlIwV+XFmmEvokXhHP54zIMa9JGn1AGu/EfQki8VU+Ovczjh59hZ6yikEgiuoIjvjsgOwI6MW4jLcCgjX2jwzMwWJHj/iiAXhn2iAC9T0C/NqXJsqIoXz0loYSaHX4DcwwA0Cub0M6NZWXyR+FqgrCxZGJikjkUPZm/YAMmj8n0bShUoIc7WDKbQpYSecJGBkzSx7R850BEta5zm7uSEYoYt/zBSPkazmJqERzcD2H9Bg4TIDJrLWa2ec5ByGaNZ0ba0XbgFZV9uf9LFfbZpot9UNROLGA/xg/T+q25C/stsHVYb6piLINDK2Z1zjXdAhBpNmwQi/6s6PLSOuf7L+jB4NN4gX9DBPHUENhx45C5xj8uLzqXtUErMOgKzvszIEuj7ab5NcHOBGwxUUX9YDNMtay6Zakj2Oyw3r05azrWoCP5DmjSsVZ7n2QQQCEbvA/LcV3o/w9Ku7PNu3hRo1u1BsSp/Vw9tv2HWKB7qohwT/XYt1N5hwLIgczfVWMQDsEUTHd+XA1oci/KASP2hI5KhSF5kOZzKnQsIQ07B6IwM7XlzmQl2xU7Idv4FEaD1dXKKex2uRvMASs5utJiJzY0sxoC2iDffUyaiMH/cg5sm1nRR3tYTBT5qJBGP+SaImVjZYMSSh5DcO3zkWBQ/j5UzcArkGLh7WRR5IHNkjCkY0igrRNrRu4DoKL3utaGzMw5hNt2JaX6nzL3VedX4QyLsvHNx2CBRZkrzzb51sPm580Aw4xhq9F4xTj75HKgaQBSgqBeSm9kB2RGPuMjp72IGSoUhV3iQkgzwNca6N957HwTHdLXVP85J8sKF8MkrMsx4Xj4AmMlwYGYC2dsXoGxEVQWqIlLVosmTYNpkNaWyjq0Y5L9HCDGc8K/gYkjGPy+cAXtfr4Tc+YdkXf7uF9gEIufV7w6ewI4T+5l3btWLECU0vFLoQyV6EcGVK4p6o3k54809uk4us2NKHkxf/96zSFA5PzhLbxxbMs0kuZ7sYne1gTKxssGJbPVwPf6pGJI/dXv5o7+hMgmhBXsw5EF3bz2QHZEkdL2wVtSQ6yPO5RNH7LlZSxxby6lL6b1XeuGWLz6wHOmgXPoJjGnNtvEasxkClpNI/ZNzGjgoYKQjfCr0OTuutw+K5WRCnY0l/v/Vrd7oNocRup4b76ydwcW9IZt+1npS9tJ/AgZWgiiACHRmaOGCmIDPNymwDJIANf5dfG0J+oAeXViBupxz9D4ISPe9mCqYfXxkkPGhHhepaF0T9Iwqv2BR9c2GVZbAx3WpIAfS9UR+vsA0V9rP2Qw++ad1COEOimkPtxSqSnwtQIST28XLwVBDB3oRA5hh1UOrlpwd2rSI4dgEYD4Wa+x2Ez2npD11Y/cJzAfDHeIi000/LSE3tGFnkdQ/yOD7yb8oSS4U+DHmWCw7r613lrE7IZtSyKSZTNL0MkzHABbPwB9RZjKAak5uXLaMRNIh72rahX2JNLuEURkHjh05hOlI8YJKnVklupbqd9bwXJox1rR3mgVn4DbqUQ4RlaXg7bOSitEWYl8zRfunzY9IA4ypk2yfPFaxuy76mj7kvVzZGLsHYstJywV5PJH4WqCsLFkYmKSORQ8lSt7wA88f4GdDCFnjLitqzozmED9H7KiqR2hwWIoNI6h/kb1yACSKvaa0bn8c1rXNmC5zgb3t16CkD1Ceyrj068tGwETUt/OjWG2ZIxDW7nUO/TVc0WPnQfueA1uHBOWw4Gfc3LG3DVJY+AHfE04VpZ7DEyNVM9+9Pr3e8X4MDf4jkwjNG94ZxOUMRSmbA73x46vNzlhYygXypNXW+zFRbzEyTL8S7Y/1t3lkxb8wlOUd4fAQyrAzgaOeQMDKDqk1DR+jQk3wSJUGeaX72r572vX04k1+25o/1rKoPfbvJ9M/NFjT3C4EDVzDzz9U4fohBrzWhUCssAlzvsnCprnjn0et3IXo1QWlBMCdB8lKId8GicS4mVbbkc6+Ab4Ea8zO7YdayvsBhQ8XXDM9MlPr2w+7ZixlNJG44LhbLm4xYZXOknS/A2J705bxojq/pY2PM/gsBL9yy+Iav8LituO5LQGBkhdzjhOUowAbIl/oKHIZmG0C/iRIO1rcEkqgLLdJiMqDHyb6IGSplmzT7bqtlnRXSkIbInf6DaKx0Gb8YjBqOtKZVt+U6+tVnLUkk24RFur7/h3UdSjkT8k7D5vjtWY9fxTmgO3jhWxU+cl3wNhpUOwOQlrxlLpc+HWf9Lj1PtI+gr2qOiHKYIJuDZk1y7lmryLXJCir9PY+MsbUGZIMV14+mEKgL6KssZdsL4dX3bWPi/NXfy0yPukfb5ciXA+yjGEMpZa7+AGNLa+hUVr7UUx+9Pwm/fQGzwrma/VgHunCqfjMb8r5dygdI5IRdtnbD71qjxhe37C9abfXe/v6+e7nsZwIpEGh7Ky3tb/Hk+2YnlZa4K20tk2z7GBPp82Q1Pwhgu5G+7w1pQq33WFvf2U7tPf/aTbgbN+8ZGyt1BDBXPstaHXBlqyX97alaWteIXaaayEwlUBvrI9Emnt+TG8G87KW7rq4vGirFrIFqq+LMYphH5z2LSEAb5lE7u+nivCe4dSXYrC+YttlMl+1EVMNXAjHLHQN54Ihc18Pup/mmA8KgtLPeT9SSvX9fWSlBFFFj799b4TXflrPp5i2DimKEe3gSJ5kOkyneJgnu58GJ+qvH2GFxj1ljUNurZAAdMo3AbN+tBA+R5lD3w4Q/7sVDQ6U+d6mAs+qtO+Clue+jfYVLrHgPFuFPaiDaicrMgJsv6+/iahndbfiNcEYjllJGGsrlQqlqWa2anFTpOxvBKUMz+G9wqup+Dy044zC0nzL+GEn8/b7+MPRnMi+m+uNsoXBq1YpGDnCLrQEYd/gyZM26wf6GUzJ8wGxwR3anEWw/q78iAPmn2rgJlJJuOdtvqtgeYcJL49SP6j+rZ1WAJqqLCtmqoEnuumL6+FjQ1oPNMDDfScHwLpVVvmdJlcHz/gnrct6bDBZZxBinzh4kdnzHU1eTNXQwoCZtrlM0f8EFrm7bilUKgoJV5Zu3H5qZi3YiMkHjeT+Fr3XARN+iN+NHMQZE96P5FURKT+6rB5MA5jBIAj8Eypk1mEAHwQLKr9K7heZP7ANCX7UUh3OmdaBKPAcvIs2dcVbpbkaVuxUoRNkU8PsL4oU85T1N9f6ydU7LY82f7Ad0eMAAKLpkQ6jYy4DRa3swiOw2+HjxN7Kd10MYGg/rHF/HmSophzUy5YTUYFnUBnip0x1FiB1za0IEcz2w/zAP55Ew6yNSaDytAiivxR+V0sE629X2mbaLDLvhwMEqYI82mPSNptVVkyfzyuUFBiWHIZwQt2MyxNl0pv85mesPHH572P3nFbgOAvAhXM//8LLIXFLocmRDoPvFkkKt1wmSpUmJsEa1JuH//puBP9BGRxYZQjdTWpgQqrW4HrsL8vUAVwknAAqmLAsarwAjuwN/wrjZ7xXYsBtYkkAe+BKiON87fx/TLry5pkmSrmRiHI+eEa5KXRYKbP1eyYqf2nnpSj4nhW4m/Zg34yUvVofllJBTT06qgL1+VLFevoFy5TLVYdqksPfOocur12/MYVQeAeEmoAivGobOdUI/JOZeLvbljdWV2xmjfU7uxDhr3rKEw6LrLHfNiN5QSU+1tnoSeCvo94704U3H5gWo4FB5+KoKoICAgaMjqYnagvwGfBt9v9mWixzeWAN3TJKrW4SPM3SxWy8PYv0ZNeT9Cmumapi13kc1zSMtbzSbbDjkzS+NEP+FX/1iWOfdMFCDjPQ0aSE8q9QssvFDzDoS31w465f4vxsLcNEuJf6jK6JdhfO0eBFBulutjh12rJ3bR5WNNsdlZOvylfMLVcTFnSPm4NRFuMwROUYdM74fv42U7V9wqv0HSQckFZxJH7lJrysMeQEG2i46dhsCgKMNB+SEbOkre4VqXNzj3XTfovlRAMPSs4I+Aip/Ia2YzTBObwnVtC4G/xVqQDeeBAq6QDliXdSeSW9d3Vx5Su2Vdlq09YryHWmJYiiZ9yhlPDQOuTBHEZUVDtWvjuvCRGONR5FvOPJLaeeVXab6brPjNUO/VESvYlAWtBKOiYzUH0au92XrfgbMj/Y8UnJxlOk1Bkz4UPIOVFSRLZpuE6xXzFHtX70dqfMn6Q4/VI09Xmunnr3Vps/QayBtz8QnXZ6D0hx+6bk5eDDT0T17ctBObk2y+LryUnMjXolYG2Dz5sOHRpnyzw5lIAjqR9cZcasbEK5ZNxaAHq4uDINTF6PUVpGItoJtSeKmpPaiq3XuSp83FHCMlrAqy0ss0o5UeSveU6ZZg9YcL1rl2RUHT+4AggTKCL/s/T/n087FuwKwERUOaEEGzc6AtlMkHaBcRbxg1WwazlqkicyCAUgf5nu0Xx6jmA3uI7eJlgeCxs4KPGk7y3dAAAAAAL5PIp8padpWY3ViOOiWNfn4H8G56d9N0qyU2/9lu3o/uqm270SOcZbDz4wnsYFTmx5eofqut1TfEFU44ZK0YXKYdXaHN3MCHPaIzoNadgSPgF5MI157bStQ7AKeteWzhuJKMeuPK5dP2s8BYXBb2jkrbyZ+0hz6hMBKk1aG7kz4//ihzEgM9D8rXGD83Fdw32ByswoPid/oFa7yXddB2FBAKBM4evojHHkM+KWLd51hxuO2ew3gcQPj/8yaLHiyT3Cg4FbrwvDv1rpnfeGYpfv8DYNlf7UnUWVtQ+pcT4B5LKo+6b3xoHbdah/VIPTh3xRbYB1kuOvYpgC5roFvXnOVo6GIVyyJGP/W8n1XvlEdXOFwNcSZ468pudvLQ30z8GVpHlL/+DyAulOKvW4y3K1PM1QlZlmahBjf6uQRej5r8fCthp1p4JxJMkfZgWLqItiDo7jVjG9WaPFQoulcFnyicpsH/rtvhTpGiVoj+sJ8IybUo+HUsACFlmPkDc2x56W8Dt7CbMpFqI6qRE9HasHM0EFYux6pGNuqKP79SRxb5zNM2AWSnJjMQzZG1ITppYYLthh7dPHdcTN6gOyEqfhkc7F1qI05f0H/02M5VBolJ2judgey7hVswlMGNs51azHg06qBzkCOeOJ7jC5i/rztChh2K9r6Nx4ynwbWshO8gdZWnp8HRTVSehJZd9sCGmfxBnht36yGHxWqln2cM0QRC3jHYlcy+tZMk0SAYVmLLOggiRIU2lT9BhPuhgkawtB1h0J5yaFYCdHgCtuwWD60Riv/Da2QQQNuGyTi6j0D49jXvZ1OQx+zFigZo4PQkg/Fi4FFli/iqFFRaXlt8dwbPH/C3DrdV3F4tEe8ttTN/6Y3fKmROtzcKtz+9jnp9/6IeWk+AJokU7wRZdSjwUCGggK9SeZE2k+DbUessY8tY8jMHeWmwxt0AXtIWxheXochC3UAUlzymIOzy/o1fZU2Xl3cA/hgbhQYKiEoPI7WQ/H1bTj9Nagq0LyfoRidgbCdpI4fqQqovoIilAk+U3KBKxX+lp78wo/8piCSUm91YP1axQoLoqkrfMGyzOin7PmwE4FDaLR1g2FNvwJbGrtba35tcrfcikkzhJ7Uh69uMF9Q9CK2PdbVwdl/LBZgH5fSDVgvU549b5UPpbDsWlPavuFpzWjrWx5FXzVgojw9ltp07PsVZy2Y/1FxIFXwda4sh3e9/cT/7hepgHS3QYLbZGz77MDEgIfyhRjXsKB19wNfTacnhaxvqe2NmCSHErX3wE4N8dBPpmMm5J5klA8Buv0K+7WdET2ZfKzV1LhymfRuDN7uOCWVxyBm/v3xzH8djOsKWgFOfqMDS/xYqI7jOzZQQEv+JQzuV0ARdvtZUf//pPhKS5wLao57gxiXOrNk9bHqxjj8ImpnW6/m+BeTU6Ugb2oXsEGozvV4lNf/0O4qPM9xjAk/z8VMLBk4uXKHBlEaoWiBfWwf5wKmVqgcuvssqBZAPWmQNmzKu7cZtxXaooA+Bc9dKw7F/o44Qnp1wG0G83GHbm0OEXnMIcrAepmRHKuPWaqo3r1nrmQGcqk9/GxhvODY+CLDS2W29yqwsWvokEUcqobahy67cjJrTm/nz07TEKDWuJ3ZcqKhEErYw9X5WzLSypQhnSJJOaRPbyo9x5Qx55ilgOdnvnOAXbEq5CjvJ/jiwnwwtJAh6UxWKaftjVPk6YMnbCJ8PecQAfzKQwEHxzOgwMFdbIxMVu4HwEi9SUZ/jwCQehBF/sHAg9quLrnbrZFueLKVA33IZmrxb/0bTUqAOTuYNChQNVlu+ZxzNtmePs6TlxIiuEGH89qcxKZoLY6sQ9JsNffRQ53TQbolx+u1iQO3Mo5B993n0QsxZZ54NxRUGxbV5lNnNf1rx3Xo7iJOV/OjxG84Pzgug9EdW6ArDV3BuKW49ICzwZot9zqPoCcPTUXO7T31OIZZ0/RO8FPADCWVqKpFp5xOdrCZ6uS5Mp003AS4Dpn2oLUP1I22pJs+xgnmpNZXmhN6DCNFSXuZ7CubeVAOVlXSWCUKeGD3jIsXikcej0UX674svZSiYJ7EE0Bc96ufiDx9LMm87M9JLqiR9EbU0EssM4gPunTQFUSpHNbyUDxLpCGqAHQCKp0IT4Bv4XZRxES/nnulFHmiRPJRX0WLG2YwFOzLzdGwcmK8P8scEgjH8RyWxmLWbLmYM7uUt8A430nr0cCd/uSqa6GPJw6dtD2jgjwXJA/vdAqH7oIBnA2d9QwgVjR8JH5eR1eIzTRoSVpYNYZNOuv1Sb4gYUN7FiIgSIgk1UWs+sSKrpOla6l7ETZvA9DEV4dTa/kEVIBodtOIvrpMSykfbmfOeqP/r53MFWQJSyIFMjtBZaSlCgfts6kWWlBoNTIAAAAAAAA;" vertex="1" parent="1">
                    <mxGeometry x="70" y="240.00000000000003" width="605" height="345.71" as="geometry"/>
                </mxCell>
                <mxCell id="17" value="自动化RAG" style="text;html=1;align=center;verticalAlign=middle;resizable=0;points=[];autosize=1;strokeColor=none;fillColor=default;" vertex="1" parent="1">
                    <mxGeometry x="105" y="208" width="90" height="30" as="geometry"/>
                </mxCell>
                <mxCell id="18" value="Browser Use" style="rounded=1;whiteSpace=wrap;html=1;" vertex="1" parent="1">
                    <mxGeometry x="480" y="150" width="280" height="30" as="geometry"/>
                </mxCell>
                <UserObject label="https://qyxznlkmwx.feishu.cn/wiki/BwWIwsCOuiMWGmkUzNHcKLvPnPh" link="https://qyxznlkmwx.feishu.cn/wiki/BwWIwsCOuiMWGmkUzNHcKLvPnPh" id="20">
                    <mxCell style="text;whiteSpace=wrap;" vertex="1" parent="1">
                        <mxGeometry x="30" y="10" width="420" height="40" as="geometry"/>
                    </mxCell>
                </UserObject>
                <mxCell id="21" value="Dify Browser Use" style="text;html=1;align=center;verticalAlign=middle;resizable=0;points=[];autosize=1;strokeColor=none;fillColor=none;" vertex="1" parent="1">
                    <mxGeometry x="210" y="208" width="120" height="30" as="geometry"/>
                </mxCell>
                <mxCell id="22" value="Dify MCP" style="text;html=1;align=center;verticalAlign=middle;resizable=0;points=[];autosize=1;strokeColor=none;fillColor=none;" vertex="1" parent="1">
                    <mxGeometry x="375" y="208" width="70" height="30" as="geometry"/>
                </mxCell>
            </root>
        </mxGraphModel>
    </diagram>
</mxfile>